<svg width="34" height="34" viewBox="0 0 34 34" fill="none" xmlns="http://www.w3.org/2000/svg">
<mask id="mask0" style="mask-type:alpha" maskUnits="userSpaceOnUse" x="0" y="0" width="34" height="34">
<path d="M0 0H33.2852V34H0V0Z" fill="white"/>
</mask>
<g mask="url(#mask0)">
<path fill-rule="evenodd" clip-rule="evenodd" d="M16.6536 19.6015C17.8126 18.4564 18.5285 16.8954 18.5285 15.2448C18.5285 9.76082 14.7856 9.76387 14.7856 15.2448C14.7856 16.9081 15.462 18.4781 16.6536 19.6015ZM10.4936 20.8572V15.2448C10.4936 9.76544 6.75074 9.76637 6.75074 15.2448C6.75074 17.683 8.27184 19.9289 10.4936 20.8572ZM22.7862 20.85C23.6311 20.4941 24.5018 19.8357 25.084 19.159C26.0014 18.0478 26.529 16.7071 26.529 15.2448C26.529 9.89102 22.7862 9.85872 22.7862 15.2448V20.85ZM16.6399 5.57703C17.4609 5.57703 18.1263 6.25671 18.1263 7.09519C18.1263 7.93358 17.4609 8.61326 16.6399 8.61326C15.8189 8.61326 15.1534 7.93358 15.1534 7.09519C15.1534 6.25671 15.8189 5.57703 16.6399 5.57703ZM23.6822 5.57703C24.5031 5.57703 25.1686 6.25671 25.1686 7.09519C25.1686 7.93358 24.5031 8.61326 23.6822 8.61326C22.8611 8.61326 22.1957 7.93358 22.1957 7.09519C22.1957 6.25671 22.8611 5.57703 23.6822 5.57703ZM9.59768 5.57703C10.4187 5.57703 11.0841 6.25671 11.0841 7.09519C11.0841 7.93358 10.4187 8.61326 9.59768 8.61326C8.7767 8.61326 8.11119 7.93358 8.11119 7.09519C8.11119 6.25671 8.7767 5.57703 9.59768 5.57703ZM12.0594 15.2448V21.2416C13.1952 21.3526 14.3385 21.1235 15.3467 20.574C14.7178 19.9103 14.1854 19.0848 13.8256 18.2375C13.4266 17.2981 13.2199 16.2825 13.2199 15.2448C13.2199 7.62071 20.0942 7.39427 20.0942 15.2448C20.0942 17.0421 19.4722 18.7572 18.3474 20.1109C18.2179 20.2667 18.0676 20.4431 17.9262 20.5803C18.9374 21.1284 20.0831 21.3544 21.2205 21.24V15.2448C21.2205 7.60072 28.0947 7.57731 28.0947 15.2448C28.0947 17.0755 27.4416 18.8139 26.274 20.1984C25.3475 21.2969 24.1459 22.1228 22.7862 22.5446V29.3624C22.7862 29.8039 22.4356 30.1619 22.0033 30.1619C21.571 30.1619 21.2205 29.8039 21.2205 29.3624V22.845C19.6019 22.9733 17.9939 22.5605 16.6308 21.655C15.2734 22.5569 13.6717 22.9704 12.0594 22.8464V29.3624C12.0594 29.8039 11.7087 30.1619 11.2764 30.1619C10.8442 30.1619 10.4937 29.8039 10.4937 29.3624L10.4936 22.5503C8.82988 22.0392 7.40428 20.9313 6.44476 19.4547C5.63003 18.2011 5.18506 16.7518 5.18506 15.2448C5.18506 8.02232 12.0594 7.01903 12.0594 15.2448Z" fill="#E17049"/>
<path fill-rule="evenodd" clip-rule="evenodd" d="M16.6392 1.65133C24.9392 1.65133 31.6676 8.52323 31.6676 17C31.6676 25.4769 24.9392 32.3487 16.6392 32.3487C8.33929 32.3487 1.61086 25.4769 1.61086 17C1.61086 8.52323 8.33929 1.65133 16.6392 1.65133ZM16.6392 0C25.8322 0 33.2845 7.61118 33.2845 17C33.2845 26.3889 25.8322 34 16.6392 34C7.44627 34 -0.00610352 26.3889 -0.00610352 17C-0.00610352 7.61118 7.44627 0 16.6392 0Z" fill="#E17049"/>
</g>
</svg>
