<svg width="94" height="34" viewBox="0 0 94 34" fill="none" xmlns="http://www.w3.org/2000/svg">
<path d="M50.3051 4.1405H52.7597V16.0615H50.3051V11.2931H45.5824V16.0615H43.1355V4.1405H45.5824V9.08314H50.3051V4.1405Z" fill="#04425B"/>
<path d="M59.7724 7.6257H62.1105V16.0615H59.7724V15.1822C59.2701 15.9321 58.5115 16.307 57.4965 16.307C56.5488 16.307 55.8005 16.0087 55.2516 15.4119C54.7027 14.8152 54.4282 13.9994 54.4282 12.9644V7.6257H56.7663V12.6713C56.7663 13.7327 57.2065 14.2634 58.0868 14.2634C58.6306 14.2634 59.0474 14.0786 59.3374 13.709C59.6274 13.334 59.7724 12.8377 59.7724 12.2198V7.6257Z" fill="#04425B"/>
<path d="M72.9682 7.30094C73.9107 7.30094 74.6357 7.59402 75.1432 8.18016C75.6559 8.76103 75.9122 9.598 75.9122 10.6911V16.0615H73.5741V11.0475C73.5741 10.5406 73.4654 10.1551 73.2479 9.89108C73.0304 9.62705 72.7145 9.49503 72.3002 9.49503C71.3888 9.49503 70.9331 10.1366 70.9331 11.4198V16.0615H68.595V11.0475C68.595 10.5459 68.4863 10.163 68.2688 9.899C68.0564 9.62969 67.7561 9.49503 67.3677 9.49503C66.9172 9.49503 66.5754 9.66665 66.3424 10.0099C66.1093 10.3478 65.9799 10.8178 65.954 11.4198V16.0615H63.6159V7.6257H65.954V8.61581C66.4045 7.73923 67.1373 7.30094 68.1522 7.30094C69.1983 7.30094 69.9725 7.74451 70.4748 8.63165C70.7182 8.19864 71.0548 7.86861 71.4846 7.64154C71.9144 7.41447 72.4089 7.30094 72.9682 7.30094Z" fill="#04425B"/>
<path d="M84.8823 16.0615H82.7773L82.4433 15.1347C82.174 15.4885 81.8141 15.771 81.3636 15.9822C80.913 16.1882 80.4211 16.2912 79.8877 16.2912C79.0281 16.2912 78.3342 16.0694 77.806 15.6258C77.2829 15.177 77.0214 14.5644 77.0214 13.7882C77.0214 13.0806 77.2674 12.5076 77.7593 12.0693C78.2565 11.6258 78.9478 11.3248 79.8333 11.1663C80.9415 10.971 81.5888 10.8442 81.7753 10.7861C82.0549 10.6964 82.2206 10.567 82.2724 10.398C82.2931 10.3294 82.3035 10.2422 82.3035 10.1366C82.3035 9.82507 82.1818 9.5848 81.9384 9.41582C81.695 9.24156 81.3506 9.15443 80.9053 9.15443C80.3719 9.15443 79.9498 9.31021 79.6391 9.62177C79.3336 9.92804 79.1808 10.3346 79.1808 10.8416L77.1302 10.0257C77.3062 9.22308 77.7335 8.57093 78.4118 8.06927C79.0954 7.56761 79.9265 7.31678 80.9053 7.31678C82.0394 7.31678 82.9352 7.58081 83.5929 8.10887C84.2506 8.63693 84.5794 9.38942 84.5794 10.3663V14.2793L84.8823 16.0615ZM80.4237 14.5327C81.0555 14.5327 81.5267 14.3664 81.8374 14.0337C82.1481 13.6957 82.3035 13.2522 82.3035 12.703V12.2198C82.1895 12.2937 82.0187 12.3571 81.7908 12.4099C81.5681 12.4627 81.1383 12.5499 80.5014 12.6713C79.8023 12.7928 79.4527 13.1175 79.4527 13.6456C79.4527 13.9043 79.5382 14.1182 79.709 14.2872C79.8851 14.4509 80.1233 14.5327 80.4237 14.5327Z" fill="#04425B"/>
<path d="M90.9862 7.30094C91.9753 7.30094 92.7236 7.63362 93.2311 8.29898C93.7438 8.96433 94.0001 9.94124 94.0001 11.2297V16.0615H91.6542V11.5703C91.6542 10.8363 91.5429 10.3109 91.3202 9.99405C91.0976 9.67193 90.7273 9.51087 90.2094 9.51087C89.6553 9.51087 89.2307 9.69833 88.9355 10.0733C88.6404 10.4482 88.4928 10.9683 88.4928 11.6337V16.0615H86.1547V7.6257H88.4928V8.66334C89.021 7.75507 89.8521 7.30094 90.9862 7.30094Z" fill="#04425B"/>
<path d="M56.3733 18.3348H58.9832L55.8917 30.2557H53.0021L50.998 22.2398L48.9784 30.2557H46.0811L42.9895 18.3348H45.5995L47.6346 26.7705L49.7241 18.4932H52.2642L54.3537 26.7388L56.3733 18.3348Z" fill="#04425B"/>
<path d="M63.097 21.4952C64.4227 21.4952 65.5154 21.9203 66.375 22.7705C67.2346 23.6154 67.6644 24.6926 67.6644 26.0022C67.6644 27.3065 67.232 28.3837 66.3672 29.2339C65.5076 30.0788 64.4175 30.5013 63.097 30.5013C61.7765 30.5013 60.6864 30.0788 59.8268 29.2339C58.9672 28.3837 58.5374 27.3065 58.5374 26.0022C58.5374 25.1362 58.7316 24.3599 59.1199 23.6734C59.5135 22.987 60.0572 22.4536 60.7512 22.0734C61.4451 21.6879 62.227 21.4952 63.097 21.4952ZM64.6273 24.315C64.2285 23.8979 63.7184 23.6893 63.097 23.6893C62.4756 23.6893 61.9655 23.8979 61.5668 24.315C61.168 24.7322 60.9687 25.2946 60.9687 26.0022C60.9687 26.6992 61.168 27.259 61.5668 27.6814C61.9707 28.0986 62.4808 28.3072 63.097 28.3072C63.7184 28.3072 64.2285 28.0986 64.6273 27.6814C65.0312 27.259 65.2331 26.6992 65.2331 26.0022C65.2331 25.2946 65.0312 24.7322 64.6273 24.315Z" fill="#04425B"/>
<path d="M73.0692 21.5744C73.4058 21.5744 73.7139 21.6298 73.9936 21.7407V24.0616C73.5637 23.919 73.165 23.8477 72.7973 23.8477C72.2588 23.8477 71.8341 24.0616 71.5234 24.4893C71.2179 24.9117 71.0651 25.482 71.0651 26.2002V30.2557H68.7271V21.82H71.0651V23.0081C71.526 22.0523 72.194 21.5744 73.0692 21.5744Z" fill="#04425B"/>
<path d="M83.2356 21.82L79.6236 25.3923L83.2356 30.2557H80.3538L77.9691 27.0081L77.2855 27.6893V30.2557H74.9474L75.0469 18.3348H77.3849L77.2855 24.6398L80.0897 21.82H83.2356Z" fill="#04425B"/>
<path d="M86.8383 21.4952C87.8636 21.4952 88.7129 21.7091 89.3861 22.1368C90.0644 22.5645 90.4969 23.1507 90.6833 23.8952L88.4928 24.7269C88.4721 24.2728 88.3141 23.9269 88.019 23.6893C87.729 23.4517 87.3354 23.3328 86.8383 23.3328C86.4654 23.3328 86.1754 23.4068 85.9683 23.5546C85.7611 23.6972 85.6576 23.8979 85.6576 24.1566C85.6576 24.3414 85.7508 24.4919 85.9372 24.6081C86.1288 24.7243 86.3748 24.8141 86.6751 24.8774C86.9755 24.9408 87.3069 25.0042 87.6694 25.0675C88.0319 25.1309 88.3944 25.2207 88.7569 25.3368C89.1246 25.453 89.4586 25.6009 89.7589 25.7804C90.0593 25.9599 90.3027 26.2187 90.4891 26.5566C90.6807 26.8893 90.7765 27.2854 90.7765 27.7448C90.7765 28.2148 90.6755 28.6319 90.4735 28.9963C90.2768 29.3554 90.0049 29.6432 89.6579 29.8597C89.311 30.0709 88.92 30.2293 88.485 30.3349C88.0552 30.4458 87.5891 30.5013 87.0868 30.5013C85.9993 30.5013 85.0957 30.2953 84.3759 29.8834C83.6561 29.4715 83.2185 28.8669 83.0631 28.0695L85.2614 27.1111C85.3287 28.1461 85.9372 28.6636 87.0868 28.6636C87.4131 28.6636 87.6953 28.595 87.9335 28.4577C88.1769 28.3151 88.2986 28.1303 88.2986 27.9032C88.2986 27.7448 88.2416 27.6101 88.1277 27.4992C88.0138 27.3883 87.8584 27.3012 87.6616 27.2378C87.47 27.1692 87.2474 27.1085 86.9936 27.0557C86.745 27.0029 86.4809 26.9501 86.2013 26.8972C85.9268 26.8392 85.6498 26.7758 85.3702 26.7071C85.0905 26.6332 84.8238 26.5329 84.5701 26.4062C84.3215 26.2794 84.0988 26.1289 83.9021 25.9547C83.7105 25.7804 83.5577 25.5533 83.4438 25.2735C83.3298 24.9936 83.2729 24.6741 83.2729 24.315C83.2729 23.7817 83.436 23.2985 83.7622 22.8655C84.0885 22.4272 84.5235 22.0893 85.0672 21.8516C85.611 21.614 86.2013 21.4952 86.8383 21.4952Z" fill="#04425B"/>
<mask id="mask0" style="mask-type:alpha" maskUnits="userSpaceOnUse" x="0" y="0" width="34" height="34">
<path d="M0 0H33.2852V34H0V0Z" fill="white"/>
</mask>
<g mask="url(#mask0)">
<path fill-rule="evenodd" clip-rule="evenodd" d="M16.6536 19.6015C17.8126 18.4564 18.5285 16.8954 18.5285 15.2448C18.5285 9.76082 14.7856 9.76387 14.7856 15.2448C14.7856 16.9081 15.462 18.4781 16.6536 19.6015ZM10.4936 20.8572V15.2448C10.4936 9.76544 6.75074 9.76637 6.75074 15.2448C6.75074 17.683 8.27184 19.9289 10.4936 20.8572ZM22.7862 20.85C23.6311 20.4941 24.5018 19.8357 25.084 19.159C26.0014 18.0478 26.529 16.7071 26.529 15.2448C26.529 9.89102 22.7862 9.85872 22.7862 15.2448V20.85ZM16.6399 5.57703C17.4609 5.57703 18.1263 6.25671 18.1263 7.09519C18.1263 7.93358 17.4609 8.61326 16.6399 8.61326C15.8189 8.61326 15.1534 7.93358 15.1534 7.09519C15.1534 6.25671 15.8189 5.57703 16.6399 5.57703ZM23.6822 5.57703C24.5031 5.57703 25.1686 6.25671 25.1686 7.09519C25.1686 7.93358 24.5031 8.61326 23.6822 8.61326C22.8611 8.61326 22.1957 7.93358 22.1957 7.09519C22.1957 6.25671 22.8611 5.57703 23.6822 5.57703ZM9.59768 5.57703C10.4187 5.57703 11.0841 6.25671 11.0841 7.09519C11.0841 7.93358 10.4187 8.61326 9.59768 8.61326C8.7767 8.61326 8.11119 7.93358 8.11119 7.09519C8.11119 6.25671 8.7767 5.57703 9.59768 5.57703ZM12.0594 15.2448V21.2416C13.1952 21.3526 14.3385 21.1235 15.3467 20.574C14.7178 19.9103 14.1854 19.0848 13.8256 18.2375C13.4266 17.2981 13.2199 16.2825 13.2199 15.2448C13.2199 7.62071 20.0942 7.39427 20.0942 15.2448C20.0942 17.0421 19.4722 18.7572 18.3474 20.1109C18.2179 20.2667 18.0676 20.4431 17.9262 20.5803C18.9374 21.1284 20.0831 21.3544 21.2205 21.24V15.2448C21.2205 7.60072 28.0947 7.57731 28.0947 15.2448C28.0947 17.0755 27.4416 18.8139 26.274 20.1984C25.3475 21.2969 24.1459 22.1228 22.7862 22.5446V29.3624C22.7862 29.8039 22.4356 30.1619 22.0033 30.1619C21.571 30.1619 21.2205 29.8039 21.2205 29.3624V22.845C19.6019 22.9733 17.9939 22.5605 16.6308 21.655C15.2734 22.5569 13.6717 22.9704 12.0594 22.8464V29.3624C12.0594 29.8039 11.7087 30.1619 11.2764 30.1619C10.8442 30.1619 10.4937 29.8039 10.4937 29.3624L10.4936 22.5503C8.82988 22.0392 7.40428 20.9313 6.44476 19.4547C5.63003 18.2011 5.18506 16.7518 5.18506 15.2448C5.18506 8.02232 12.0594 7.01903 12.0594 15.2448Z" fill="#E17049"/>
<path fill-rule="evenodd" clip-rule="evenodd" d="M16.6392 1.65133C24.9392 1.65133 31.6676 8.52323 31.6676 17C31.6676 25.4769 24.9392 32.3487 16.6392 32.3487C8.33929 32.3487 1.61086 25.4769 1.61086 17C1.61086 8.52323 8.33929 1.65133 16.6392 1.65133ZM16.6392 0C25.8322 0 33.2845 7.61118 33.2845 17C33.2845 26.3889 25.8322 34 16.6392 34C7.44627 34 -0.00610352 26.3889 -0.00610352 17C-0.00610352 7.61118 7.44627 0 16.6392 0Z" fill="#E17049"/>
</g>
</svg>
