<svg width="33" height="28" viewBox="0 0 33 28" fill="none" xmlns="http://www.w3.org/2000/svg">
<path d="M25.8379 21.0855C25.1211 21.0526 24.4442 21.0263 23.7672 21C23.4884 20.9868 23.2163 20.9803 22.9375 20.9605C22.8048 20.9474 22.7915 20.9868 22.8247 21.1118C23.0902 22.0592 23.3557 23.0066 23.6212 23.9539C23.6278 23.9737 23.6344 23.9934 23.6477 24.0526C22.619 23.6579 21.6168 23.2697 20.5947 22.8684C20.6146 23.9474 20.6411 25 20.6611 26.0921C20.4819 25.9737 20.3159 25.8684 20.1566 25.7632C19.5195 25.3421 18.8823 24.9145 18.2385 24.4934C18.066 24.3816 18.066 24.3816 18.0129 24.5789C17.7607 25.4408 17.5151 26.2961 17.2629 27.1579C17.2496 27.2105 17.2231 27.2632 17.1965 27.3355C16.4864 26.5658 15.7961 25.8158 15.0793 25.0395C14.6147 26.0263 14.1568 26.9934 13.6789 28C13.1612 26.9539 12.6634 25.9474 12.1524 24.9079C11.4223 25.7237 10.6989 26.5197 9.96217 27.3421C9.87589 26.9342 9.79624 26.5526 9.7166 26.1776C9.58386 25.5395 9.45112 24.9079 9.32502 24.2697C9.29847 24.1447 9.27192 24.1316 9.15909 24.2039C8.36929 24.7171 7.57284 25.2303 6.7764 25.7368C6.73658 25.7632 6.70339 25.7829 6.63702 25.8224C6.72331 24.7697 6.80959 23.7368 6.9025 22.6711C5.86713 22.9737 4.84503 23.2763 3.80965 23.5789C3.78974 23.5066 3.82292 23.4539 3.84284 23.3947C4.15478 22.4803 4.46672 21.5658 4.78529 20.6513C4.83175 20.5197 4.81184 20.4934 4.67246 20.5C3.73001 20.5395 2.78755 20.5789 1.84509 20.6118C1.792 20.6118 1.71899 20.6447 1.69244 20.5921C1.66589 20.5395 1.73226 20.4934 1.75881 20.4474C2.25659 19.6382 2.75436 18.8224 3.25878 18.0132C3.27205 17.9868 3.28533 17.9671 3.2986 17.9276C2.33623 17.7105 1.3805 17.4934 0.404859 17.2763C0.55751 17.0855 0.743348 16.9408 0.91591 16.7829C1.4336 16.2961 1.95129 15.8158 2.47561 15.3355C2.5818 15.2434 2.54862 15.2105 2.44906 15.1513C1.69908 14.7368 0.955732 14.3158 0.205748 13.9013C0.146015 13.8684 0.0796443 13.8289 0 13.7763C0.93582 13.2237 1.85173 12.6842 2.78091 12.1316C2.00438 11.4539 1.24112 10.7829 0.457954 10.0921C0.862812 10 1.24112 9.90789 1.61943 9.82237C2.23668 9.68421 2.84728 9.53947 3.46453 9.4079C3.61054 9.375 3.63045 9.34211 3.54417 9.21053C3.03312 8.44737 2.52871 7.67105 2.02429 6.90132C1.99111 6.84868 1.94465 6.80921 1.93801 6.73026C2.39597 6.75658 2.85392 6.7829 3.30524 6.80921C3.86939 6.84211 4.43353 6.88158 4.99104 6.92105C5.15033 6.93421 5.06405 6.82895 5.05077 6.7829C4.84503 6.09868 4.63928 5.41447 4.43353 4.72368C4.34725 4.43421 4.26097 4.15132 4.16805 3.82895C4.61937 3.98684 5.03086 4.13158 5.449 4.27632C5.96005 4.45395 6.4711 4.63158 6.97551 4.81579C7.11489 4.86842 7.16135 4.84868 7.15471 4.69079C7.14807 3.75 7.15471 2.80921 7.15471 1.86842C7.15471 1.80921 7.15471 1.75 7.15471 1.65132C7.37373 1.81579 7.5662 1.95395 7.75868 2.0921C8.37592 2.54605 8.99316 3 9.60377 3.45395C9.7166 3.53289 9.74315 3.53289 9.78297 3.39474C10.0219 2.41447 10.2608 1.44079 10.5064 0.467105C10.513 0.43421 10.5263 0.407894 10.5462 0.335526C11.2431 1.17763 11.9135 2 12.6037 2.82895C13.1413 1.88158 13.6656 0.947368 14.1966 0C14.6413 0.993421 15.0793 1.96711 15.524 2.96053C16.3005 2.125 17.0638 1.30921 17.847 0.460526C18.0262 1.55263 18.1987 2.60526 18.3779 3.68421C19.2872 3.13816 20.1832 2.59868 21.0725 2.05921C21.0725 2.34868 21.0792 2.63158 21.0725 2.90789C21.046 3.63158 21.0128 4.34868 20.9863 5.07237C20.9796 5.26974 20.9796 5.26974 21.1655 5.21053C22.0946 4.91447 23.0238 4.625 23.953 4.32895C23.9928 4.31579 24.026 4.29605 24.0858 4.31579C23.9796 4.63158 23.8667 4.95395 23.7605 5.27631C23.5415 5.92105 23.3159 6.56579 23.0902 7.21053C23.0504 7.32895 23.0305 7.38158 23.203 7.375C24.0924 7.32895 24.9884 7.29605 25.8777 7.26316C25.9308 7.26316 25.9906 7.26316 26.0503 7.26316C26.0569 7.33553 26.0039 7.375 25.9707 7.42105C25.7118 7.79605 25.4596 8.17105 25.1809 8.53289C25.0614 8.69737 25.0149 8.83553 25.1344 9.01316C25.2008 9.11184 25.234 9.22368 25.2871 9.35526C24.922 9.31579 24.5703 9.27632 24.2251 9.23684C23.4951 9.15132 22.7716 9.05921 22.0415 8.98026C21.8424 8.96053 21.7097 8.89474 21.5902 8.73026C20.1035 6.66447 18.1058 5.38158 15.5904 4.92763C11.0374 4.10526 6.5441 6.73026 5.09723 11.1053C4.08841 14.1711 4.56627 17.0461 6.51755 19.6382C8.01752 21.625 10.0418 22.8026 12.5108 23.1908C16.3271 23.7895 20.0836 21.9934 22.0283 18.6842C22.3269 18.1776 22.5725 17.6513 22.7583 17.0987C22.7915 16.9934 22.838 16.9605 22.9442 16.9671C24.1853 17.0461 25.4264 17.1118 26.6609 17.1842C26.7671 17.1908 26.8401 17.2237 26.8999 17.3092C27.0193 17.4803 27.1388 17.6447 27.2715 17.8092C27.3379 17.8947 27.318 17.9276 27.2118 17.9474C26.422 18.0921 25.6255 18.2368 24.8357 18.3882C24.6632 18.4211 24.4906 18.4605 24.318 18.4803C24.1787 18.4934 24.1588 18.5329 24.2384 18.6513C24.63 19.2434 25.0083 19.8355 25.3932 20.4276C25.5525 20.6382 25.6853 20.8421 25.8379 21.0855Z" fill="#0297CF"/>
<path d="M32.999 13.2707C32.9924 14.4351 32.5543 15.2772 31.6384 15.8167C30.1451 16.6983 28.6053 16.7049 27.0722 15.922C26.2691 15.5141 25.8576 14.7772 25.6718 13.9154C25.32 12.2575 26.4948 10.5338 28.2137 10.1983C29.2292 10.0009 30.238 10.0404 31.207 10.4286C32.2092 10.8233 32.7402 11.5996 32.9194 12.6325C32.9725 12.8759 33.0057 13.1259 32.999 13.2707Z" fill="#0297CF"/>
<path d="M21.6581 12.9151C21.9169 12.9151 22.1758 12.9217 22.4346 12.9151C22.7598 12.9085 23.032 12.7901 23.1647 12.4677C23.4036 11.9019 23.0651 11.3625 22.4479 11.3361C22.1293 11.323 21.8041 11.3361 21.4855 11.3296C21.3793 11.3296 21.3661 11.3756 21.3661 11.4611C21.3528 11.8559 21.3262 12.2572 21.313 12.6519C21.2665 13.8032 21.22 14.9546 21.1802 16.1059C21.1736 16.2243 21.1537 16.2704 21.0209 16.2704C20.5232 16.2638 20.0254 16.2638 19.5276 16.2704C19.3949 16.2704 19.3683 16.2309 19.375 16.1125C19.4347 14.5072 19.4878 12.9019 19.5409 11.2967C19.5542 10.9809 19.5674 10.6585 19.5674 10.3427C19.5674 10.244 19.6006 10.2243 19.6935 10.2243C20.9944 10.2243 22.2886 10.2177 23.5895 10.2309C24.3328 10.2375 24.9899 10.9151 25.0297 11.6519C25.0762 12.5664 24.6049 13.3361 23.6558 13.5598C23.5364 13.5861 23.5828 13.6454 23.616 13.7046C23.9213 14.3559 24.2266 15.0006 24.5253 15.6519C24.6049 15.8164 24.6779 15.9875 24.7642 16.1519C24.824 16.2638 24.7908 16.2835 24.6779 16.2769C24.074 16.2506 23.47 16.2309 22.866 16.2177C22.793 16.2177 22.7532 16.1914 22.7267 16.1256C22.3683 15.073 22.0099 14.0204 21.6448 12.9677C21.6515 12.9546 21.6515 12.948 21.6581 12.9151Z" fill="#0297CF"/>
<path d="M13.5715 13.2193C13.6046 12.2654 13.6378 11.3048 13.671 10.3509C13.671 10.2588 13.6976 10.2259 13.7971 10.2259C14.9188 10.2325 16.0471 10.1996 17.1687 10.239C17.9984 10.2654 18.6952 10.7719 18.6621 11.7917C18.6421 12.3114 18.5625 12.818 18.2439 13.2522C17.8855 13.7456 17.3678 13.9364 16.7838 13.989C16.5448 14.0088 16.2993 13.989 16.0537 13.9956C15.9741 13.9956 15.9342 13.9693 15.9077 13.8904C15.8214 13.5811 15.7285 13.2785 15.6356 12.9759C15.6024 12.8772 15.6356 12.8575 15.7285 12.864C15.8745 12.8706 16.0205 12.864 16.1665 12.864C16.5979 12.8575 16.8767 12.6272 16.9298 12.2325C16.9829 11.818 16.7838 11.5088 16.3723 11.3969C16.0537 11.3114 15.7285 11.3706 15.4099 11.3575C15.3303 11.3509 15.3435 11.4167 15.3435 11.4627C15.3369 11.7061 15.3236 11.943 15.317 12.1864C15.2838 13.5088 15.244 14.8246 15.2174 16.1469C15.2174 16.2719 15.1776 16.2917 15.0582 16.2851C14.5869 16.2588 14.1091 16.239 13.6378 16.2259C13.5117 16.2259 13.4785 16.193 13.4852 16.0614C13.5117 15.1075 13.5383 14.1667 13.5715 13.2193Z" fill="#0297CF"/>
<path d="M31.1001 13.3829C31.0735 13.9882 30.8147 14.5605 30.2041 14.9487C29.4939 15.4026 28.5713 15.2316 28.0337 14.5539C27.4099 13.7711 27.4696 12.6066 28.1798 11.8961C29.0094 11.0605 30.3766 11.3105 30.8943 12.3961C31.027 12.6789 31.1001 12.975 31.1001 13.3829Z" fill="#F2F6F7"/>
</svg>
